<?xml version="1.0" encoding="utf-8"?>
<!-- Generator: Adobe Illustrator 17.0.0, SVG Export Plug-In . SVG Version: 6.00 Build 0)  -->
<!DOCTYPE svg PUBLIC "-//W3C//DTD SVG 1.1//EN" "http://www.w3.org/Graphics/SVG/1.1/DTD/svg11.dtd">
<svg version="1.1" id="Layer_1" xmlns="http://www.w3.org/2000/svg" xmlns:xlink="http://www.w3.org/1999/xlink" x="0px" y="0px"
	 width="641.056px" height="131.674px" viewBox="0 0 641.056 131.674" enable-background="new 0 0 641.056 131.674"
	 xml:space="preserve">
<g>
	<path fill="#FFFFFF" d="M54.56,64.3c4.98-2.535,8.586-9.146,8.586-15.152c0-6.335-3.274-11.732-8.544-14.084
		c-2.966-1.356-6.266-1.907-11.403-1.907H13.606v4.682h8.489v60.678h22.358c3.786,0,6.747-0.199,9.804-1.188
		c7.032-2.408,11.59-9.017,11.59-16.829C65.847,72.976,60.91,66.138,54.56,64.3 M28.996,38.321h14.203
		c3.226,0,5.587,0.461,7.656,1.496l0.063,0.033c3.263,1.849,5.134,5.554,5.134,10.166c0,7.053-4.584,11.791-11.406,11.791h-15.65
		V38.321z M51.446,92.282c-1.69,0.71-3.913,1.07-6.607,1.07H28.996v-26.38h16.615c7.861,0,13.142,5.243,13.142,13.046
		C58.753,85.712,55.953,90.411,51.446,92.282"/>
	<path fill="#FFFFFF" d="M106.781,64.3c4.98-2.535,8.586-9.146,8.586-15.152c0-6.335-3.274-11.732-8.544-14.084
		c-2.966-1.356-6.266-1.907-11.403-1.907H65.827v4.682h8.49v60.678h22.358c3.785,0,6.746-0.199,9.803-1.188
		c7.032-2.408,11.59-9.017,11.59-16.829C118.068,72.976,113.132,66.138,106.781,64.3 M81.217,38.321H95.42
		c3.226,0,5.587,0.461,7.656,1.496l0.063,0.033c3.263,1.849,5.134,5.554,5.134,10.166c0,7.053-4.584,11.791-11.406,11.791h-15.65
		V38.321z M103.667,92.282c-1.69,0.71-3.913,1.07-6.607,1.07H81.217v-26.38h16.615c7.861,0,13.142,5.243,13.142,13.046
		C110.974,85.712,108.174,90.411,103.667,92.282"/>
	<path fill="#FFFFFF" d="M131.674,131.674H0V0h131.674V131.674z M3.949,127.725h123.776V3.95H3.949V127.725z"/>
	<path fill="#FFFFFF" d="M212.647,45.266c3.413-3.24,5.355-7.845,5.355-13.018c0-7.377-3.892-13.697-10.136-16.485
		c-3.258-1.489-6.754-2.097-12.066-2.097h-31.03v12.182h7.769v55.527h24.409c3.742,0,6.906-0.217,10.186-1.278l0.044-0.015
		c8.077-2.766,13.296-10.28,13.296-19.143C220.474,54.087,217.568,48.435,212.647,45.266 M197.124,39.885h-10.373V26.289h9.049
		c2.27,0,3.871,0.284,5.175,0.919c1.678,0.986,2.638,3.108,2.638,5.835C203.613,37.327,201.187,39.885,197.124,39.885
		 M201.818,68.08c-0.728,0.307-2.103,0.672-4.517,0.672h-10.55V52.508h11.256c5.058,0,8.078,2.987,8.078,7.99
		c0,3.585-1.63,6.489-4.254,7.577L201.818,68.08z"/>
	<polygon fill="#FFFFFF" points="254.548,62.219 254.548,69.37 243.297,69.37 266.818,40.625 266.818,31.322 224.445,31.322 
		224.445,43.327 247.695,43.327 224.003,72.067 224.003,81.375 267.436,81.375 267.436,62.219 	"/>
	<path fill="#FFFFFF" d="M362.038,50.601c-4.978-1.714-8.5-3.099-8.5-5.307c0-2.126,3.302-2.693,5.253-2.693
		c3.204,0,5.165,1.229,5.165,1.898v5.606h12.888v-19.12h-12.006c-1.993-0.424-4.107-0.654-6.135-0.654
		c-4.763,0-9.238,1.166-12.602,3.283c-4.317,2.716-6.599,6.786-6.599,11.768c0,10.258,9.448,13.784,15.699,16.117l0.036,0.014
		c0.429,0.153,0.852,0.302,1.268,0.449c7.305,2.58,8.069,3.547,8.069,5.137c0,2.093-3.272,3.046-6.313,3.046
		c-4.021,0-7.548-1.341-7.548-2.87V61.67h-12.888v19.739h12.005c2.572,0.714,5.368,1.094,8.166,1.094
		c12.33,0,20.613-6.367,20.613-15.845C378.609,56.132,368.242,52.669,362.038,50.601"/>
	<path fill="#FFFFFF" d="M326.907,69.37V50.08c0-13.15-5.896-19.818-17.523-19.818c-6.459,0-11.298,2.468-14.629,5.398v-4.338
		h-21.08v12.005h7.416v38.048h21.01V69.37h-7.063V57.937c0-7.094,4.574-14.433,12.227-14.433c3.858,0,5.694,1.274,5.694,8.519
		v29.352h21.01V69.37H326.907z"/>
	<path fill="#FFFFFF" d="M422.419,50.131c4.556-2.319,7.857-8.37,7.857-13.866c0-5.797-2.996-10.735-7.819-12.888
		c-2.714-1.241-5.734-1.745-10.435-1.745h-27.081v4.284h7.769v55.528h20.46c3.464,0,6.174-0.182,8.971-1.087
		c6.435-2.204,10.606-8.252,10.606-15.401C432.747,58.071,428.23,51.813,422.419,50.131 M399.025,26.358h12.997
		c2.953,0,5.113,0.422,7.006,1.368l0.058,0.031c2.986,1.691,4.698,5.083,4.698,9.303c0,6.454-4.195,10.79-10.438,10.79h-14.321
		V26.358z M419.569,75.738c-1.547,0.65-3.581,0.98-6.046,0.98h-14.498V52.576h15.204c7.194,0,12.027,4.798,12.027,11.939
		C426.256,69.726,423.694,74.026,419.569,75.738"/>
	<path fill="#FFFFFF" d="M477.731,74.226V39.288h-6.05v19.313c0,9.166-5.886,18.647-15.734,18.647
		c-9.643,0-9.643-8.675-9.643-12.379V39.288H432.75v4.108h7.503v23.238c0,10.827,4.257,15.87,13.398,15.87
		c4.465,0,8.282-1.014,11.709-3.437c2.564-1.812,6.143-5.78,6.954-7.157h0.016l-0.223,1.448c-0.001,0.01-0.162,1.081-0.162,2.457
		v1.943c0,3.248,2.222,3.687,4.394,3.687h8.013v-4.021h-3.422C478.987,77.424,477.731,76.169,477.731,74.226"/>
	<polygon fill="#FFFFFF" points="497.83,39.288 484.365,39.288 484.365,43.396 491.78,43.396 491.78,81.445 504.893,81.445 
		504.893,77.336 497.83,77.336 	"/>
	<path fill="#FFFFFF" d="M565.83,74.138V21.632h-6.051v22.677c-0.611-1.117-6.448-6.08-14.939-6.08
		c-5.558,0-10.299,2.054-13.711,5.939c-3.491,3.977-5.337,9.579-5.337,16.199c0,13.447,7.165,22.137,18.253,22.137
		c8.697,0,14.896-6.184,16.796-8.364l-0.32,1.066c0,0-0.212,0.756-0.212,2.021v0.619c0,1.675,0.489,3.599,4.305,3.599h7.66v-4.109
		h-3.246C567.055,77.336,565.83,76.111,565.83,74.138 M545.899,77.601c-8.302,0-13.88-6.926-13.88-17.234
		c0-5.136,1.406-9.483,4.067-12.573c2.541-2.95,6.12-4.574,10.078-4.574c4.365,0,8.001,1.881,10.516,5.442
		c2.169,3.071,3.364,7.259,3.364,11.793C560.044,73.111,552.424,77.601,545.899,77.601"/>
	<path fill="#FFFFFF" d="M593.352,38.228c-12.41,0-21.078,9.104-21.078,22.138c0,12.827,9.422,22.137,22.403,22.137
		c8.079,0,13.797-3.723,15.777-5.227l-2.292-4.068c-2.131,1.546-6.882,4.392-12.956,4.392c-7.877,0-16.097-5.062-16.703-16.372
		h-0.071h32.864c0.066-0.657,0.133-2.788,0.133-3.334c0-5.557-1.632-10.522-4.597-13.98
		C603.643,40.194,598.982,38.228,593.352,38.228 M578.63,56.943l0.241-1.461c1.298-7.878,6.913-12.969,14.305-12.969
		c3.212,0,6.146,1.206,8.263,3.395c2.268,2.346,3.539,5.713,3.674,9.736l0.044,1.299H578.63z"/>
	<polygon fill="#FFFFFF" points="518.359,21.632 504.893,21.632 504.893,25.74 512.309,25.74 512.308,81.71 525.774,81.71 
		525.774,77.601 518.359,77.601 	"/>
	<path fill="#FFFFFF" d="M640.105,38.758c-5.613,0-12.91,3.421-15.116,9.609v-9.609h-13.554v4.638h7.503v38.049h12.672v-4.109
		h-6.621V64.251c0-9.45,4.647-19.619,14.851-19.619c0.441,0,0.852,0.023,1.216,0.058v-5.892
		C640.765,38.775,640.438,38.758,640.105,38.758"/>
	<g>
		<path fill="#FFFFFF" d="M184.512,94.99l-8.251,13.162v10.281h-3.117v-9.95l-8.281-13.493h3.448l6.407,10.485l6.472-10.485H184.512
			z"/>
		<path fill="#FFFFFF" d="M205.812,97.683c0.955,1.05,1.688,2.335,2.196,3.857c0.51,1.521,0.764,3.248,0.764,5.18
			s-0.26,3.66-0.779,5.188s-1.246,2.801-2.181,3.818c-0.966,1.061-2.106,1.857-3.424,2.394c-1.317,0.535-2.821,0.803-4.511,0.803
			c-1.648,0-3.146-0.273-4.495-0.819c-1.35-0.545-2.496-1.338-3.44-2.377s-1.672-2.314-2.181-3.826s-0.764-3.237-0.764-5.18
			c0-1.91,0.252-3.624,0.756-5.141s1.238-2.815,2.204-3.896c0.924-1.029,2.07-1.816,3.44-2.362c1.37-0.545,2.862-0.818,4.479-0.818
			c1.679,0,3.188,0.275,4.526,0.826C203.742,95.88,204.879,96.664,205.812,97.683z M205.529,106.72c0-3.044-0.683-5.393-2.047-7.046
			s-3.228-2.479-5.589-2.479c-2.383,0-4.254,0.826-5.613,2.479s-2.039,4.002-2.039,7.046c0,3.075,0.693,5.43,2.078,7.062
			c1.386,1.632,3.244,2.448,5.574,2.448s4.186-0.816,5.565-2.448S205.529,109.795,205.529,106.72z"/>
		<path fill="#FFFFFF" d="M231.946,109.019c0,1.7-0.187,3.183-0.56,4.447c-0.372,1.266-0.983,2.317-1.834,3.157
			c-0.809,0.798-1.753,1.38-2.834,1.748c-1.081,0.367-2.341,0.551-3.778,0.551c-1.47,0-2.75-0.194-3.842-0.583
			c-1.092-0.388-2.011-0.96-2.756-1.716c-0.85-0.86-1.461-1.899-1.834-3.117s-0.559-2.714-0.559-4.487V94.99h3.117v14.186
			c0,1.271,0.087,2.272,0.26,3.007c0.173,0.735,0.465,1.401,0.874,2c0.462,0.683,1.089,1.196,1.881,1.543
			c0.793,0.347,1.745,0.52,2.858,0.52c1.123,0,2.078-0.171,2.865-0.512s1.417-0.858,1.89-1.551c0.409-0.599,0.7-1.283,0.873-2.055
			c0.174-0.771,0.261-1.729,0.261-2.873V94.99h3.117V109.019z"/>
		<path fill="#FFFFFF" d="M257.939,118.434h-4.046l-7.841-9.32h-4.393v9.32h-3.118V94.99h6.566c1.417,0,2.598,0.092,3.542,0.275
			s1.795,0.512,2.551,0.983c0.851,0.536,1.514,1.21,1.991,2.023s0.717,1.845,0.717,3.094c0,1.69-0.425,3.104-1.275,4.243
			c-0.851,1.14-2.021,1.997-3.511,2.574L257.939,118.434z M250.65,101.587c0-0.672-0.118-1.268-0.354-1.787
			s-0.627-0.958-1.173-1.314c-0.451-0.305-0.987-0.517-1.606-0.638s-1.349-0.182-2.188-0.182h-3.668v8.849h3.148
			c0.986,0,1.848-0.086,2.582-0.26c0.735-0.173,1.359-0.496,1.874-0.968c0.473-0.441,0.821-0.947,1.047-1.52
			S250.65,102.469,250.65,101.587z"/>
		<path fill="#FFFFFF" d="M291.976,94.99l-8.533,23.443h-4.156l-8.534-23.443h3.338l7.353,20.625l7.354-20.625H291.976z"/>
		<path fill="#FFFFFF" d="M304.445,118.434h-9.258v-2.394h3.07V97.383h-3.07V94.99h9.258v2.393h-3.07v18.657h3.07V118.434z"/>
		<path fill="#FFFFFF" d="M329.793,118.434h-4.046l-7.841-9.32h-4.393v9.32h-3.118V94.99h6.566c1.417,0,2.598,0.092,3.542,0.275
			s1.795,0.512,2.551,0.983c0.851,0.536,1.514,1.21,1.991,2.023s0.717,1.845,0.717,3.094c0,1.69-0.425,3.104-1.275,4.243
			c-0.851,1.14-2.021,1.997-3.511,2.574L329.793,118.434z M322.504,101.587c0-0.672-0.118-1.268-0.354-1.787
			s-0.627-0.958-1.173-1.314c-0.451-0.305-0.987-0.517-1.606-0.638s-1.349-0.182-2.188-0.182h-3.668v8.849h3.148
			c0.986,0,1.848-0.086,2.582-0.26c0.735-0.173,1.359-0.496,1.874-0.968c0.473-0.441,0.821-0.947,1.047-1.52
			S322.504,102.469,322.504,101.587z"/>
		<path fill="#FFFFFF" d="M350.118,97.761h-8.377v20.673h-3.117V97.761h-8.376V94.99h19.87V97.761z"/>
		<path fill="#FFFFFF" d="M371.497,109.019c0,1.7-0.187,3.183-0.56,4.447c-0.372,1.266-0.983,2.317-1.834,3.157
			c-0.809,0.798-1.753,1.38-2.834,1.748c-1.081,0.367-2.341,0.551-3.778,0.551c-1.47,0-2.75-0.194-3.842-0.583
			c-1.092-0.388-2.011-0.96-2.756-1.716c-0.85-0.86-1.461-1.899-1.834-3.117s-0.559-2.714-0.559-4.487V94.99h3.117v14.186
			c0,1.271,0.087,2.272,0.26,3.007c0.173,0.735,0.465,1.401,0.874,2c0.462,0.683,1.089,1.196,1.881,1.543
			c0.793,0.347,1.745,0.52,2.858,0.52c1.123,0,2.078-0.171,2.865-0.512s1.417-0.858,1.89-1.551c0.409-0.599,0.7-1.283,0.873-2.055
			c0.174-0.771,0.261-1.729,0.261-2.873V94.99h3.117V109.019z"/>
		<path fill="#FFFFFF" d="M396.545,118.434h-3.322l-2.298-6.534h-10.14l-2.299,6.534h-3.165l8.534-23.443h4.156L396.545,118.434z
			 M389.964,109.223l-4.109-11.509l-4.125,11.509H389.964z"/>
		<path fill="#FFFFFF" d="M415.58,118.434h-14.832V94.99h3.118v20.672h11.714V118.434z"/>
		<path fill="#FFFFFF" d="M449.364,116.733c-0.577,0.252-1.1,0.488-1.566,0.708c-0.467,0.221-1.078,0.452-1.834,0.693
			c-0.641,0.199-1.336,0.37-2.086,0.512c-0.751,0.142-1.577,0.212-2.48,0.212c-1.7,0-3.246-0.238-4.637-0.716
			s-2.601-1.226-3.629-2.244c-1.008-0.997-1.795-2.265-2.361-3.802c-0.567-1.538-0.851-3.325-0.851-5.361
			c0-1.931,0.272-3.658,0.818-5.18c0.546-1.522,1.333-2.808,2.362-3.857c0.997-1.019,2.201-1.795,3.613-2.33
			c1.411-0.536,2.979-0.804,4.699-0.804c1.26,0,2.517,0.152,3.771,0.457c1.254,0.305,2.647,0.84,4.18,1.605v3.7h-0.236
			c-1.291-1.081-2.571-1.868-3.841-2.361c-1.271-0.493-2.63-0.74-4.078-0.74c-1.187,0-2.254,0.191-3.204,0.575
			c-0.95,0.383-1.798,0.979-2.543,1.786c-0.724,0.788-1.288,1.782-1.692,2.984c-0.404,1.201-0.606,2.59-0.606,4.164
			c0,1.648,0.224,3.065,0.67,4.251c0.445,1.187,1.021,2.152,1.724,2.897c0.734,0.776,1.593,1.352,2.574,1.724
			c0.981,0.373,2.018,0.559,3.109,0.559c1.501,0,2.907-0.257,4.22-0.771c1.312-0.514,2.54-1.285,3.685-2.314h0.22V116.733z"/>
		<path fill="#FFFFFF" d="M471.829,97.683c0.955,1.05,1.688,2.335,2.196,3.857c0.51,1.521,0.764,3.248,0.764,5.18
			s-0.26,3.66-0.779,5.188s-1.246,2.801-2.181,3.818c-0.966,1.061-2.106,1.857-3.424,2.394c-1.317,0.535-2.821,0.803-4.511,0.803
			c-1.648,0-3.146-0.273-4.495-0.819c-1.35-0.545-2.496-1.338-3.44-2.377s-1.672-2.314-2.181-3.826s-0.764-3.237-0.764-5.18
			c0-1.91,0.252-3.624,0.756-5.141s1.238-2.815,2.204-3.896c0.924-1.029,2.07-1.816,3.44-2.362c1.37-0.545,2.862-0.818,4.479-0.818
			c1.679,0,3.188,0.275,4.526,0.826C469.758,95.88,470.895,96.664,471.829,97.683z M471.546,106.72c0-3.044-0.683-5.393-2.047-7.046
			s-3.228-2.479-5.589-2.479c-2.383,0-4.254,0.826-5.613,2.479s-2.039,4.002-2.039,7.046c0,3.075,0.693,5.43,2.078,7.062
			c1.386,1.632,3.244,2.448,5.574,2.448s4.186-0.816,5.565-2.448S471.546,109.795,471.546,106.72z"/>
		<path fill="#FFFFFF" d="M495.287,97.761h-11.855v6.613h10.187v2.771h-10.187v11.289h-3.118V94.99h14.974V97.761z"/>
		<path fill="#FFFFFF" d="M516.934,97.683c0.955,1.05,1.688,2.335,2.196,3.857c0.51,1.521,0.764,3.248,0.764,5.18
			s-0.26,3.66-0.779,5.188s-1.246,2.801-2.181,3.818c-0.966,1.061-2.106,1.857-3.424,2.394c-1.317,0.535-2.821,0.803-4.511,0.803
			c-1.648,0-3.146-0.273-4.495-0.819c-1.35-0.545-2.496-1.338-3.44-2.377s-1.672-2.314-2.181-3.826s-0.764-3.237-0.764-5.18
			c0-1.91,0.252-3.624,0.756-5.141s1.238-2.815,2.204-3.896c0.924-1.029,2.07-1.816,3.44-2.362c1.37-0.545,2.862-0.818,4.479-0.818
			c1.679,0,3.188,0.275,4.526,0.826C514.864,95.88,516.001,96.664,516.934,97.683z M516.651,106.72c0-3.044-0.683-5.393-2.047-7.046
			s-3.228-2.479-5.589-2.479c-2.383,0-4.254,0.826-5.613,2.479s-2.039,4.002-2.039,7.046c0,3.075,0.693,5.43,2.078,7.062
			c1.386,1.632,3.244,2.448,5.574,2.448s4.186-0.816,5.565-2.448S516.651,109.795,516.651,106.72z"/>
		<path fill="#FFFFFF" d="M543.068,109.019c0,1.7-0.187,3.183-0.56,4.447c-0.372,1.266-0.983,2.317-1.834,3.157
			c-0.809,0.798-1.753,1.38-2.834,1.748c-1.081,0.367-2.341,0.551-3.778,0.551c-1.47,0-2.75-0.194-3.842-0.583
			c-1.092-0.388-2.011-0.96-2.756-1.716c-0.85-0.86-1.461-1.899-1.834-3.117s-0.559-2.714-0.559-4.487V94.99h3.117v14.186
			c0,1.271,0.087,2.272,0.26,3.007c0.173,0.735,0.465,1.401,0.874,2c0.462,0.683,1.089,1.196,1.881,1.543
			c0.793,0.347,1.745,0.52,2.858,0.52c1.123,0,2.078-0.171,2.865-0.512s1.417-0.858,1.89-1.551c0.409-0.599,0.7-1.283,0.873-2.055
			c0.174-0.771,0.261-1.729,0.261-2.873V94.99h3.117V109.019z"/>
		<path fill="#FFFFFF" d="M567.55,118.434h-3.857l-11.116-20.972v20.972h-2.913V94.99h4.834l10.14,19.146V94.99h2.913V118.434z"/>
		<path fill="#FFFFFF" d="M594.173,106.735c0,2.131-0.465,4.063-1.394,5.794c-0.93,1.732-2.165,3.076-3.708,4.03
			c-1.07,0.662-2.265,1.14-3.582,1.434s-3.052,0.44-5.203,0.44h-5.921V94.99h5.857c2.288,0,4.106,0.165,5.455,0.496
			c1.349,0.33,2.49,0.784,3.425,1.361c1.596,0.997,2.839,2.325,3.731,3.983C593.726,102.49,594.173,104.458,594.173,106.735z
			 M590.913,106.689c0-1.837-0.32-3.386-0.96-4.645c-0.641-1.26-1.596-2.252-2.866-2.977c-0.924-0.524-1.904-0.89-2.943-1.094
			c-1.04-0.205-2.283-0.308-3.731-0.308h-2.929v18.091h2.929c1.5,0,2.81-0.11,3.928-0.33c1.118-0.221,2.144-0.63,3.078-1.229
			c1.165-0.745,2.039-1.727,2.621-2.944C590.622,110.036,590.913,108.515,590.913,106.689z"/>
		<path fill="#FFFFFF" d="M615.237,118.434h-15.446V94.99h15.446v2.771h-12.328v6.424h12.328v2.771h-12.328v8.706h12.328V118.434z"
			/>
		<path fill="#FFFFFF" d="M640.158,118.434h-4.046l-7.841-9.32h-4.393v9.32h-3.118V94.99h6.566c1.417,0,2.598,0.092,3.542,0.275
			s1.795,0.512,2.551,0.983c0.851,0.536,1.514,1.21,1.991,2.023s0.717,1.845,0.717,3.094c0,1.69-0.425,3.104-1.275,4.243
			c-0.851,1.14-2.021,1.997-3.511,2.574L640.158,118.434z M632.869,101.587c0-0.672-0.118-1.268-0.354-1.787
			s-0.627-0.958-1.173-1.314c-0.451-0.305-0.987-0.517-1.606-0.638s-1.349-0.182-2.188-0.182h-3.668v8.849h3.148
			c0.986,0,1.848-0.086,2.582-0.26c0.735-0.173,1.359-0.496,1.874-0.968c0.473-0.441,0.821-0.947,1.047-1.52
			S632.869,102.469,632.869,101.587z"/>
	</g>
</g>
</svg>
